<svg
	 title="mail" xmlns:dc="http://purl.org/dc/elements/1.1/" xmlns:cc="http://creativecommons.org/ns#" xmlns:rdf="http://www.w3.org/1999/02/22-rdf-syntax-ns#" xmlns:svg="http://www.w3.org/2000/svg" xmlns:sodipodi="http://sodipodi.sourceforge.net/DTD/sodipodi-0.dtd" xmlns:inkscape="http://www.inkscape.org/namespaces/inkscape"
	 xmlns="http://www.w3.org/2000/svg" xmlns:xlink="http://www.w3.org/1999/xlink" x="0px" y="0px" width="452.881px"
	 height="293.76px" viewBox="79.559 172.619 452.881 293.76" enable-background="new 79.559 172.619 452.881 293.76"
	 xml:space="preserve">
<g transform="translate(0,-952.36218)">
	<path d="M84.533,1124.981c-2.806,0.539-5.023,3.267-4.973,6.124c0,77.507,0,204.005,0,281.512c0,3.206,2.916,6.123,6.12,6.124
		h440.64c3.205-0.001,6.12-2.918,6.12-6.124c0-77.507,0-204.005,0-281.512c0-3.206-2.915-6.123-6.12-6.124
		C411.772,1124.981,198.877,1124.981,84.533,1124.981L84.533,1124.981z M92.183,1137.23h427.635L306,1302.578L92.183,1137.23z
		 M91.8,1153.115l210.184,162.286c2.218,1.886,5.815,1.886,8.033,0L520.2,1153.115v253.379H91.8V1153.115z"/>
</g>
</svg>